<?xml version="1.0" encoding="utf-8"?>
<!-- Generator: Adobe Illustrator 23.0.3, SVG Export Plug-In . SVG Version: 6.00 Build 0)  -->
<svg version="1.1" id="Layer_1" xmlns="http://www.w3.org/2000/svg" xmlns:xlink="http://www.w3.org/1999/xlink" x="0px" y="0px"
	 viewBox="0 0 20 18.2" style="enable-background:new 0 0 20 18.2;" xml:space="preserve">
<path d="M0,14.1c0.1-0.1,0.2-0.1,0.3,0c3,1.8,6.3,2.6,9.9,2.6c2.4,0,4.7-0.4,7-1.3c0.1,0,0.1-0.1,0.3-0.1c0.1,0,0.2-0.1,0.2-0.1
	c0.2-0.1,0.3,0,0.4,0.1c0.1,0.1,0.1,0.3-0.1,0.4c-0.2,0.2-0.5,0.3-0.8,0.5c-1,0.6-2.2,1.1-3.5,1.4c-1.3,0.3-2.5,0.5-3.8,0.5
	c-1.9,0-3.7-0.3-5.4-1c-1.7-0.7-3.2-1.6-4.5-2.8C0,14.3,0,14.3,0,14.2C0,14.2,0,14.1,0,14.1z M5.5,8.9c0-0.8,0.2-1.6,0.6-2.1
	c0.4-0.6,1-1,1.7-1.3C8.5,5.2,9.3,5,10.2,4.8c0.3,0,0.9-0.1,1.6-0.1V4.4c0-0.8-0.1-1.3-0.3-1.6c-0.3-0.4-0.7-0.5-1.2-0.5h-0.1
	c-0.4,0-0.7,0.2-1,0.4C8.9,2.9,8.7,3.2,8.6,3.6c0,0.2-0.2,0.4-0.4,0.4L6.2,3.7C6,3.7,5.9,3.6,5.9,3.4c0,0,0-0.1,0-0.1
	c0.2-1.1,0.7-1.9,1.5-2.4C8.2,0.4,9.2,0.1,10.2,0h0.5c1.4,0,2.5,0.4,3.2,1.1c0.1,0.1,0.2,0.3,0.3,0.4c0.1,0.1,0.2,0.3,0.2,0.4
	c0.1,0.1,0.1,0.3,0.2,0.5c0,0.2,0.1,0.3,0.1,0.4c0,0.1,0,0.2,0.1,0.5c0,0.3,0,0.4,0,0.5v4.4c0,0.3,0,0.6,0.1,0.9
	c0.1,0.3,0.2,0.4,0.3,0.6c0.1,0.1,0.2,0.3,0.4,0.6c0.1,0.1,0.1,0.2,0.1,0.3c0,0.1,0,0.2-0.1,0.3c-1,0.9-1.6,1.3-1.6,1.4
	c-0.1,0.1-0.3,0.1-0.5,0c-0.2-0.1-0.3-0.3-0.4-0.4c-0.1-0.1-0.2-0.2-0.3-0.3c-0.1-0.1-0.1-0.2-0.3-0.4c-0.1-0.2-0.2-0.3-0.3-0.4
	c-0.7,0.7-1.3,1.2-2,1.4c-0.4,0.1-0.9,0.2-1.5,0.2c-0.9,0-1.7-0.3-2.3-0.9S5.5,10,5.5,8.9z M8.6,8.6C8.6,9,8.8,9.4,9,9.7
	c0.2,0.3,0.6,0.4,1,0.4c0,0,0.1,0,0.2,0c0.1,0,0.1,0,0.1,0c0.5-0.1,0.9-0.5,1.2-1c0.1-0.2,0.2-0.5,0.3-0.8c0.1-0.3,0.1-0.5,0.1-0.7
	c0-0.2,0-0.4,0-0.8V6.4c-0.7,0-1.2,0-1.6,0.1C9.2,6.8,8.6,7.5,8.6,8.6z M16.3,14.4c0,0,0.1-0.1,0.1-0.1c0.3-0.2,0.6-0.3,0.9-0.4
	c0.5-0.1,0.9-0.2,1.3-0.2c0.1,0,0.2,0,0.3,0c0.5,0,0.9,0.1,1,0.3c0,0.1,0.1,0.2,0.1,0.3v0.1c0,0.4-0.1,0.9-0.3,1.5
	c-0.2,0.6-0.6,1-1,1.4c-0.1,0-0.1,0.1-0.2,0.1c0,0,0,0-0.1,0c-0.1,0-0.1-0.1-0.1-0.2c0.4-1.1,0.7-1.8,0.7-2.2c0-0.1,0-0.2-0.1-0.3
	c-0.1-0.1-0.5-0.2-1-0.2c-0.2,0-0.4,0-0.7,0c-0.3,0-0.6,0.1-0.8,0.1c-0.1,0-0.1,0-0.1,0C16.2,14.5,16.2,14.5,16.3,14.4
	C16.3,14.5,16.3,14.4,16.3,14.4z"/>
</svg>
