<?xml version="1.0" encoding="UTF-8"?>
<svg width="26px" height="16px" viewBox="0 0 26 16" version="1.1" xmlns="http://www.w3.org/2000/svg" xmlns:xlink="http://www.w3.org/1999/xlink">
    <!-- Generator: Sketch 53.1 (72631) - https://sketchapp.com -->
    <title>beatport</title>
    <desc>Created with Sketch.</desc>
    <g id="Page-1" stroke="none" stroke-width="1" fill="none" fill-rule="evenodd">
        <g id="Artist-ikone" transform="translate(-204.000000, -232.000000)" fill="#000000">
            <path d="M226.435688,241.355138 C226.435688,243.741073 225.527891,246.013698 223.879116,247.75532 L223.880112,247.755813 C223.659014,247.988606 223.289023,248.000208 223.053982,247.7805 L222.036631,246.831804 C221.802586,246.613823 221.790386,246.249453 222.008745,246.01592 L222.006504,246.013698 C223.207107,244.746301 223.867912,243.091082 223.867912,241.355138 C223.867912,237.600838 220.786978,234.54615 217.000174,234.54615 C213.213619,234.54615 210.132935,237.600838 210.132935,241.355138 C210.132935,243.091082 210.794237,244.746301 211.994093,246.013698 L211.993097,246.014932 C212.211955,246.248218 212.200252,246.613329 211.966207,246.831804 L210.949106,247.7805 C210.713566,248.000208 210.344571,247.988606 210.122975,247.756307 L210.122477,247.756801 C208.472956,246.014932 207.565158,243.74206 207.565158,241.355138 C207.565158,236.196679 211.797645,232 217.000174,232 C222.203202,232 226.435688,236.196679 226.435688,241.355138 Z M230,241.310307 C230,243.569108 229.383266,245.784954 228.216525,247.718636 C228.049705,247.992901 227.691665,248.082019 227.414795,247.917361 L226.216931,247.20516 C225.940558,247.040996 225.850674,246.686993 226.014008,246.413222 L226.012514,246.411741 C226.941475,244.872547 227.432473,243.108708 227.432473,241.310307 C227.432473,240.291996 227.277355,239.288496 226.974839,238.326716 L226.976084,238.325728 C226.881221,238.020358 227.053269,237.696226 227.361263,237.601678 L228.695073,237.19065 C229.001074,237.096595 229.325501,237.264462 229.424597,237.565142 C229.425095,237.567117 229.425095,237.568104 229.425593,237.569092 C229.425593,237.570079 229.426589,237.571313 229.427087,237.572054 L229.426589,237.572054 C229.807535,238.778723 230,240.035751 230,241.310307 Z M207.987984,246.411988 L207.987237,246.412481 C208.148579,246.686253 208.058446,247.038033 207.783318,247.201704 L206.585703,247.913905 C206.30958,248.078069 205.952536,247.989692 205.785965,247.717895 L205.783973,247.718883 C204.61773,245.784954 204,243.568861 204,241.310554 C204,240.033776 204.194208,238.774032 204.575901,237.564895 L204.578142,237.566129 C204.676491,237.263968 205.001415,237.095854 205.307417,237.189909 L206.641725,237.601924 C206.949221,237.696967 207.121518,238.020852 207.026406,238.326469 L207.026406,238.326962 L207.026406,238.327456 L207.025908,238.327456 C206.722645,239.288989 206.568274,240.292242 206.568274,241.310554 C206.568274,243.109201 207.059272,244.873041 207.987984,246.411988 Z" id="beatport"></path>
        </g>
    </g>
</svg>