<?xml version="1.0" encoding="utf-8"?>
<!-- Generator: Adobe Illustrator 23.0.3, SVG Export Plug-In . SVG Version: 6.00 Build 0)  -->
<svg version="1.1" id="Layer_1" xmlns="http://www.w3.org/2000/svg" xmlns:xlink="http://www.w3.org/1999/xlink" x="0px" y="0px"
	 viewBox="0 0 97.2 97.5" style="enable-background:new 0 0 97.2 97.5;" xml:space="preserve">
<g>
	<path d="M93,68.9c-6.2,12.8-15.5,21.4-28.5,25.9C35.9,104.8,5,86.2,0.6,56.4C-3.4,30.2,13.3,6.2,39.2,1C66-4.5,92.8,14.2,96.8,41.1
		c0.9,6.1,0.9,6.1-5.3,7.6C70.8,53.4,50.1,58.2,29.4,63c-0.8,0.2-1.5,0.5-2.6,0.8c3.6,5.3,8.2,8.6,13.9,10.4
		c10.4,3.3,21.7-0.1,28.5-8.6c1.1-1.3,2-1.7,3.8-1.3C79.5,65.9,86.1,67.4,93,68.9z M70.3,33.8c-5.1-9.3-18.6-13.9-29.7-10.4
		c-9.7,3.1-18.7,13.7-17.8,21.4C38.6,41.1,54.3,37.5,70.3,33.8z"/>
</g>
</svg>
