<?xml version="1.0" encoding="utf-8"?>
<!-- Generator: Adobe Illustrator 19.0.0, SVG Export Plug-In . SVG Version: 6.00 Build 0)  -->
<svg version="1.1" id="Layer_1" xmlns="http://www.w3.org/2000/svg" xmlns:xlink="http://www.w3.org/1999/xlink" x="0px" y="0px"
	 width="18.9px" height="19px" viewBox="0 0 18.9 19" style="enable-background:new 0 0 18.9 19;" xml:space="preserve">
<style type="text/css">
	.st0{fill:#1A1A1A;}
</style>
<path class="st0" d="M18.7,7l0.1,0.4c0.1,0.6,0.2,1.4,0.2,2.1c0,0.7,0,1.3-0.1,1.9c-0.7,4.7-4.2,7.6-9.2,7.6C4.2,19,0,14.8,0,9.5
	C0,4.2,4.2,0,9.6,0c2.7,0,4.9,0.8,6.5,2.4l0.4,0.4l-3.3,3.3l-0.4-0.4C12,4.9,10.9,4.5,9.6,4.5c-2.7,0-5.1,2.3-5.1,5
	c0,2.7,2.4,5,5.1,5c2,0,3.6-1.1,4.3-3H9V7C9,7,18.7,7,18.7,7z"/>
</svg>
