<?xml version="1.0" encoding="UTF-8" standalone="no"?><!DOCTYPE svg PUBLIC "-//W3C//DTD SVG 1.1//EN" "http://www.w3.org/Graphics/SVG/1.1/DTD/svg11.dtd"><svg width="100%" height="100%" viewBox="0 0 40 40" version="1.1" xmlns="http://www.w3.org/2000/svg" xmlns:xlink="http://www.w3.org/1999/xlink" xml:space="preserve" xmlns:serif="http://www.serif.com/" style="fill-rule:evenodd;clip-rule:evenodd;stroke-linejoin:round;stroke-miterlimit:1.41421;"><path d="M4.904,0c-1.687,0 -2.821,1.217 -2.821,3.029l0,33.94c0,1.813 1.134,3.031 2.821,3.031c0.923,0 1.544,-0.249 2.189,-0.622l28.965,-16.577c0.459,-0.265 1.859,-1.069 1.859,-2.801c0,-1.733 -1.399,-2.538 -1.859,-2.803l-2.139,-1.229c-1.918,-6.331 -7.801,-10.952 -14.752,-10.952c-1.248,0 -2.455,0.165 -3.617,0.446l-8.454,-4.84c-0.648,-0.374 -1.269,-0.622 -2.192,-0.622Zm14.263,6.683c7.603,0 13.75,6.146 13.75,13.75c0,0.811 -0.087,1.6 -0.222,2.371l-5.877,3.365c1.207,-1.604 1.932,-3.591 1.932,-5.752c0,-5.293 -4.291,-9.584 -9.583,-9.584c-5.293,0 -9.584,4.291 -9.584,9.584c0,5.292 4.291,9.583 9.584,9.583c0.36,0 0.715,-0.023 1.066,-0.062l-5.892,3.373c-5.211,-1.954 -8.924,-6.975 -8.924,-12.878c0,-7.604 6.146,-13.75 13.75,-13.75Zm0.416,8.317l3.334,0l0,2.396l-2.084,0l0,5.417c0,1.217 -1.157,2.187 -2.395,2.187c-1.215,0 -2.188,-0.978 -2.188,-2.22c0,-1.218 0.975,-2.218 2.214,-2.218c0.405,0 0.786,0.118 1.119,0.309l0,-5.871Z" style="fill-rule:nonzero;"/></svg>