<?xml version="1.0" encoding="UTF-8" standalone="no"?><!DOCTYPE svg PUBLIC "-//W3C//DTD SVG 1.1//EN" "http://www.w3.org/Graphics/SVG/1.1/DTD/svg11.dtd"><svg width="100%" height="100%" viewBox="0 0 80 80" version="1.1" xmlns="http://www.w3.org/2000/svg" xmlns:xlink="http://www.w3.org/1999/xlink" xml:space="preserve" xmlns:serif="http://www.serif.com/" style="fill-rule:evenodd;clip-rule:evenodd;stroke-linejoin:round;stroke-miterlimit:1.41421;"><path d="M49.893,33.333l0.195,1.103c0.274,1.564 0.439,3.643 0.439,5.559c-0.002,1.745 -0.128,3.452 -0.376,5.073c-1.903,12.5 -11.307,20.265 -24.543,20.265c-14.359,0 -25.608,-11.13 -25.608,-25.338c0,-14.203 11.249,-25.328 25.608,-25.328c7.14,0 13.147,2.17 17.373,6.277l0.971,0.943l-8.929,8.929l-0.943,-0.951c-2.077,-2.091 -5.007,-3.198 -8.472,-3.198c-7.248,0 -13.608,6.228 -13.608,13.328c0,7.105 6.36,13.338 13.608,13.338c5.421,0 9.664,-3.022 11.415,-8l-13.023,0l0,-12l25.893,0Zm22.114,-7.999l0,7.993l7.993,0l0,9.34l-7.993,0l0,8l-9.34,0l0,-8l-8,0l0,-9.333l8,0l0,-8l9.34,0Z" style="fill:#1a1a1a;"/></svg>