<?xml version="1.0" encoding="UTF-8"?>
<svg width="15px" height="16px" viewBox="0 0 15 16" version="1.1" xmlns="http://www.w3.org/2000/svg" xmlns:xlink="http://www.w3.org/1999/xlink">
    <!-- Generator: Sketch 53.1 (72631) - https://sketchapp.com -->
    <title>googleplay</title>
    <desc>Created with Sketch.</desc>
    <g id="Page-1" stroke="none" stroke-width="1" fill="none" fill-rule="evenodd">
        <g id="Artist-ikone" transform="translate(-324.000000, -492.000000)" fill="#000000" fill-rule="nonzero">
            <g id="googleplay" transform="translate(324.000000, 492.000000)">
                <path d="M0.15,0 C0.129545455,0.062 0.109090909,0.123333333 0.109090909,0.205333333 L0.109090909,15.6913333 C0.109090909,15.836 0.150681818,15.918 0.234545455,16 L8.0175,7.938 L0.15,0 Z M8.5425,8.472 L10.5545455,10.502 L7.68204545,12.102 C7.68204545,12.102 4.03090909,14.1313333 2.0175,15.2613333 L8.5425,8.472 Z M9.08863636,7.918 L11.2472727,10.1126667 C11.5854545,9.92866667 14.2275,8.45133333 14.6045455,8.246 C15.0027273,8.02066667 14.9625,7.71266667 14.6243182,7.54866667 C14.3113636,7.37866667 11.6693182,5.89866667 11.2697727,5.65866667 L9.08590909,7.92 L9.08863636,7.918 L9.08863636,7.918 Z M8.54113636,7.38466667 L10.5756818,5.272 L7.67181818,3.65133333 C7.67181818,3.65133333 2.93795455,1.00333333 1.36295455,0.119333333 L8.5425,7.38466667 L8.54113636,7.38466667 Z" id="Shape"></path>
            </g>
        </g>
    </g>
</svg>