<?xml version="1.0" ?><svg enable-background="new 0 0 800 800" id="Layer_1" version="1.1" viewBox="0 0 800 800" xml:space="preserve" xmlns="http://www.w3.org/2000/svg" xmlns:xlink="http://www.w3.org/1999/xlink"><g><path d="M417.1,176c9.6-2.1-1.1-22.4-9.6-24.5c-6.4-1.1-18.1,9.6-17.1,16C391.5,173.9,407.5,179.2,417.1,176z"/><path d="M398.9,53.3C208,53.3,52.3,209.1,52.3,400S208,746.7,398.9,746.7S745.6,590.9,745.6,400S589.9,53.3,398.9,53.3z M681.6,400   c0,115.2-69.3,214.4-167.5,258.1c-12.8,2.1-30.9,3.2-68.3,3.2c-42.7-1.1-53.3,13.9-64,21.3c-10.7-1.1-22.4-2.1-33.1-4.3   c-2.1-1.1-4.3-2.1-6.4-3.2c-23.5-14.9-39.5-14.9-48-12.8c-103.5-41.6-177.1-144-177.1-262.4c0-41.6,8.5-80,24.5-115.2   c17.1,62.9-24.5,66.1-24.5,115.2c0,32,21.3,85.3,53.3,134.4c36.3,54.4,83.2,101.3,100.3,97.1c30.9-9.6-70.4-24.5-7.5-139.7   c62.9-116.3-82.1-39.5-103.5-198.4c-7.5-57.6,32-40.5,60.8-83.2c21.3-33.1,64-40.5,58.7-64c17.1-8.5,35.2-14.9,54.4-19.2   c-20.3,18.1-38.4,33.1,3.2,24.5c45.9-9.6,69.3-18.1,72.5-32c25.6,1.1,49.1,4.3,72.5,11.7c-17.1-2.1-49.1-2.1-50.1,20.3   c-2.1,30.9-6.4,42.7-21.3,45.9s-18.1,7.5-18.1,13.9c1.1,19.2,19.2,23.5,49.1,0c29.9-23.5,38.4,7.5,61.9,12.8   c23.5,5.3,20.3-23.5,39.5-16c19.2,7.5,42.7,49.1-17.1,44.8c-59.7-3.2-89.6-20.3-133.3,2.1c-61.9,30.9-51.2,122.7,13.9,121.6   c53.3,0,68.3,2.1,85.3,58.7S480,512,509.9,555.7c29.9,45.9,100.3-82.1,98.1-124.8s55.5-62.9,23.5-113.1   c-32-49.1,6.4-49.1,34.1-20.3C675.2,329.6,681.6,363.7,681.6,400z"/><path d="M602.7,523.7c14.9,5.3,53.3-74.7,36.3-67.2C620.8,464,590.9,519.5,602.7,523.7z"/></g></svg>