<?xml version="1.0" encoding="utf-8"?>
<!-- Generator: Adobe Illustrator 23.0.2, SVG Export Plug-In . SVG Version: 6.00 Build 0)  -->
<svg version="1.1" id="Layer_1" xmlns="http://www.w3.org/2000/svg" xmlns:xlink="http://www.w3.org/1999/xlink" x="0px" y="0px"
	 viewBox="0 0 12 16" style="enable-background:new 0 0 12 16;" xml:space="preserve">
<style type="text/css">
	.st0{fill-rule:evenodd;clip-rule:evenodd;fill:#FF1E43;}
</style>
<title>hot</title>
<desc>Created with Sketch.</desc>
<g id="Page-1">
	<g id="Artist-ikone" transform="translate(-759.000000, -232.000000)">
		<g id="hot" transform="translate(759.000000, 232.000000)">
			<path id="Shape" class="st0" d="M3.7,0C4.1,4.8,0,6.4,0,10.7C0,13.5,2,16,5.9,16s5.9-2.9,5.9-6c0-2.8-1.3-5.4-3.9-7
				c0.6,1.7-0.2,3.3-1,3.9C6.9,4.7,6.1,1.4,3.7,0z M6.7,8.7c2.4,2.7,0.9,6-1,6c-1.2,0-1.8-0.8-1.8-1.7C3.9,11.3,5.7,11.3,6.7,8.7z"
				/>
		</g>
	</g>
</g>
</svg>
