<?xml version="1.0" encoding="UTF-8" standalone="no"?><!DOCTYPE svg PUBLIC "-//W3C//DTD SVG 1.1//EN" "http://www.w3.org/Graphics/SVG/1.1/DTD/svg11.dtd"><svg width="100%" height="100%" viewBox="0 0 30 30" version="1.1" xmlns="http://www.w3.org/2000/svg" xmlns:xlink="http://www.w3.org/1999/xlink" xml:space="preserve" xmlns:serif="http://www.serif.com/" style="fill-rule:evenodd;clip-rule:evenodd;stroke-linejoin:round;stroke-miterlimit:1.41421;"><path id="Mask" d="M3.558,8.095c0.037,-0.367 -0.104,-0.73 -0.379,-0.977l-2.8,-3.366l0,-0.502l8.697,0l6.723,14.703l5.91,-14.703l8.291,0l0,0.502l-2.395,2.29c-0.206,0.157 -0.309,0.415 -0.266,0.671l0,16.825c-0.043,0.255 0.06,0.511 0.266,0.67l2.339,2.29l0,0.502l-11.765,0l0,-0.502l2.424,-2.348c0.237,-0.235 0.237,-0.305 0.237,-0.668l0,-13.599l-6.736,17.062l-0.91,0l-7.844,-17.062l0,11.435c-0.065,0.48 0.095,0.964 0.434,1.312l3.151,3.812l0,0.503l-8.935,0l0,-0.503l3.151,-3.812c0.338,-0.349 0.488,-0.835 0.407,-1.312l0,-13.223Z" style="fill-rule:nonzero;"/></svg>