<?xml version="1.0" encoding="UTF-8"?>
<svg width="24px" height="16px" viewBox="0 0 24 16" version="1.1" xmlns="http://www.w3.org/2000/svg" xmlns:xlink="http://www.w3.org/1999/xlink">
    <!-- Generator: Sketch 53.1 (72631) - https://sketchapp.com -->
    <title>mixcloud</title>
    <desc>Created with Sketch.</desc>
    <g id="Page-1" stroke="none" stroke-width="1" fill="none" fill-rule="evenodd">
        <g id="Artist-ikone" transform="translate(-204.000000, -297.000000)" fill="#000000" fill-rule="nonzero">
            <g id="mixcloud" transform="translate(204.000000, 297.000000)">
                <path d="M21.95,15.062 C21.796,15.062 21.64,15.017 21.505,14.927 C21.136,14.677 21.04,14.177 21.28,13.817 C22.018,12.723 22.405,11.436 22.405,10.098 C22.405,8.76 22.018,7.473 21.28,6.377 C21.031,6.009 21.135,5.511 21.496,5.271 C21.871,5.022 22.366,5.125 22.604,5.485 C23.521,6.85 24,8.455 24,10.105 C24,11.753 23.521,13.359 22.604,14.724 C22.469,14.963 22.214,15.083 21.959,15.083 L21.95,15.062 L21.95,15.062 Z" id="Path"></path>
                <path d="M19.66,13.768 C19.507,13.768 19.352,13.723 19.215,13.629 C18.846,13.39 18.752,12.895 19,12.535 C19.489,11.814 19.747,10.99 19.747,10.105 C19.747,9.25 19.489,8.41 19,7.674 C18.752,7.314 18.846,6.82 19.215,6.579 C19.584,6.338 20.072,6.429 20.321,6.804 C20.99,7.794 21.342,8.949 21.342,10.118 C21.342,11.319 20.99,12.458 20.321,13.433 C20.175,13.673 19.915,13.793 19.66,13.793 L19.66,13.768 Z M15.93,6.615 C15.616,3.418 12.914,0.916 9.63,0.916 C6.909,0.916 4.5,2.664 3.635,5.199 C1.588,5.501 0,7.269 0,9.4 C0,11.744 1.912,13.654 4.26,13.654 L15.168,13.654 C17.132,13.654 18.734,12.06 18.734,10.097 C18.734,8.391 17.534,6.968 15.929,6.617 L15.929,6.615 L15.93,6.615 Z M15.168,12.061 L4.263,12.061 C2.797,12.061 1.594,10.87 1.594,9.403 C1.594,7.938 2.787,6.745 4.263,6.745 C4.973,6.745 5.644,7.03 6.149,7.526 C6.449,7.84 6.96,7.84 7.274,7.526 C7.574,7.225 7.574,6.715 7.274,6.401 C6.719,5.859 6.043,5.47 5.309,5.29 C6.059,3.625 7.739,2.516 9.614,2.516 C12.223,2.516 14.354,4.645 14.354,7.254 C14.354,7.766 14.279,8.26 14.114,8.74 C13.979,9.16 14.204,9.609 14.624,9.76 C14.698,9.79 14.789,9.805 14.864,9.805 C15.194,9.805 15.509,9.594 15.614,9.265 C15.719,8.95 15.794,8.635 15.839,8.305 C16.573,8.59 17.099,9.31 17.099,10.135 C17.099,11.231 16.214,12.114 15.134,12.114 L15.168,12.061 Z" id="Shape"></path>
            </g>
        </g>
    </g>
</svg>