<?xml version="1.0" encoding="utf-8"?>
<!-- Generator: Adobe Illustrator 23.0.3, SVG Export Plug-In . SVG Version: 6.00 Build 0)  -->
<svg version="1.1" id="Layer_1" xmlns="http://www.w3.org/2000/svg" xmlns:xlink="http://www.w3.org/1999/xlink" x="0px" y="0px"
	 viewBox="0 0 20 20" style="enable-background:new 0 0 20 20;" xml:space="preserve">
<style type="text/css">
	.st0{fill:#FFFFFF;}
</style>
<g>
	<path d="M18.2,5.7V3c0,0-0.9,0-2,0.3c-1.6-1.7-3.8-2.8-6.3-2.8c-2.5,0-4.7,1.1-6.3,2.7C2.6,3,1.8,3,1.8,3v2.7C0.7,6.4,0,7.7,0,9
		c0,1.4,0.7,2.6,1.8,3.3c0.3,4,3.9,7.2,8.2,7.2c4.3,0,7.9-3.2,8.2-7.2C19.3,11.7,20,10.4,20,9C20,7.7,19.3,6.4,18.2,5.7z M10,2.2
		c1.8,0,3.4,0.7,4.7,1.7c-0.3,0.1-0.6,0.3-0.8,0.5c-1.1-0.7-2.4-1.1-3.9-1.1c-1.4,0-2.7,0.4-3.8,1.1C5.9,4.2,5.6,4.1,5.3,3.9
		C6.6,2.9,8.2,2.2,10,2.2z"/>
	<g>
		<path class="st0" d="M13.9,6.3c-1.1-0.8-2.4-1.2-3.9-1.2c-1.5,0-2.8,0.5-3.9,1.2C5.6,5.9,4.7,5.1,3.4,4.9v6.7c0,3.5,3,6.4,6.6,6.4
			c3.6,0,6.6-2.9,6.6-6.4V4.9C15.3,5.1,14.4,5.9,13.9,6.3z"/>
		<path d="M10,18.1c-3.7,0-6.8-2.9-6.8-6.6V4.7l0.2,0c1.3,0.3,2.2,1,2.7,1.4C7.2,5.4,8.6,4.9,10,4.9c1.4,0,2.8,0.4,3.9,1.2
			c0.5-0.4,1.4-1.2,2.7-1.4l0.2,0v6.8C16.7,15.1,13.7,18.1,10,18.1z M3.5,5v6.5c0,3.5,2.9,6.3,6.5,6.3c3.6,0,6.5-2.8,6.5-6.3V5
			c-1.2,0.3-2,1-2.4,1.4l-0.1,0.1l-0.1-0.1c-1.1-0.8-2.4-1.2-3.8-1.2c-1.4,0-2.7,0.4-3.8,1.2L6.1,6.5L6,6.4C5.5,6,4.7,5.3,3.5,5z"/>
	</g>
	<path d="M8,14.3C8.5,15,10,15.6,10,15.6s1.5-0.6,2-1.2H8z"/>
	<path d="M11.5,15.9c0,0-0.5,0.3-1.5,0.3c-1,0-1.6-0.3-1.6-0.3C8.2,16,8,16.6,8,16.6c0.4,0.4,1.6,0.5,2.1,0.5c0.5,0,1.5-0.2,2-0.5
		C12,16.6,11.8,16,11.5,15.9z"/>
	<path d="M5,11.3l2.4,0c0,0,1.9-0.2,2.1,2.2l-2.7-0.1C6.8,13.4,5.2,13.2,5,11.3z"/>
	<path d="M10.4,13.5l2.4,0c0,0,1.9,0.2,2.1-2.2l-2.7,0.1C12.2,11.4,10.7,11.6,10.4,13.5z"/>
</g>
</svg>
