<?xml version="1.0" encoding="UTF-8"?>
<svg width="17px" height="16px" viewBox="0 0 17 16" version="1.1" xmlns="http://www.w3.org/2000/svg" xmlns:xlink="http://www.w3.org/1999/xlink">
    <!-- Generator: Sketch 53.1 (72631) - https://sketchapp.com -->
    <title>shazam</title>
    <desc>Created with Sketch.</desc>
    <g id="Page-1" stroke="none" stroke-width="1" fill="none" fill-rule="evenodd">
        <g id="Artist-ikone" transform="translate(-324.000000, -167.000000)" fill="#000000" fill-rule="nonzero">
            <g id="shazam" transform="translate(324.000000, 167.000000)">
                <path d="M8.84,0 C4.33364,0 0.67932,3.58066667 0.67932,8 C0.67932,12.4166667 4.33364,16 8.84,16 C13.34636,16 17,12.4166667 17,8 C17,3.58066667 13.34636,0 8.84,0 M7.39296,11.1573333 C6.5178,11.1573333 5.64332,10.8733333 4.97148,10.3033333 C4.14596,9.604 3.65636,8.65066667 3.59176,7.62066667 C3.53056,6.62133333 3.87736,5.658 4.56824,4.90933333 C5.3448,4.06733333 6.73676,2.75933333 6.79524,2.70333333 C7.17264,2.34866667 7.77104,2.36266667 8.13212,2.73333333 C8.49252,3.10466667 8.48028,3.69266667 8.1022,4.04733333 C8.08792,4.06066667 6.70072,5.36466667 5.96904,6.15666667 C5.6236,6.53266667 5.44952,7.012 5.48012,7.508 C5.51344,8.034 5.77116,8.52733333 6.20772,8.89866667 C6.78164,9.38533333 7.91452,9.49266667 8.62376,8.87 C9.04468,8.49733333 9.55672,7.952 9.56216,7.946 C9.91576,7.568 10.51416,7.544 10.89836,7.892 C11.28256,8.23866667 11.3084,8.82666667 10.9548,9.20466667 C10.931,9.228 10.37544,9.82066667 9.88584,10.2526667 C9.20244,10.854 8.29736,11.1573333 7.39296,11.1573333 M13.11176,11.0913333 C12.33452,11.9326667 10.94324,13.2413333 10.88408,13.2973333 C10.70048,13.468 10.46588,13.554 10.23128,13.554 C9.98104,13.554 9.73352,13.4573333 9.5472,13.2673333 C9.18612,12.8946667 9.19904,12.308 9.57712,11.9533333 C9.5914,11.94 10.97996,10.6353333 11.71028,9.84266667 C12.05572,9.46733333 12.2298,8.98733333 12.1992,8.49133333 C12.16656,7.96533333 11.90816,7.472 11.4716,7.102 C10.89768,6.61533333 9.7648,6.50666667 9.05624,7.13133333 C8.63396,7.502 8.1226,8.04866667 8.11784,8.054 C7.76356,8.43133333 7.16652,8.45666667 6.78096,8.11 C6.39744,7.76266667 6.37024,7.174 6.7252,6.796 C6.74832,6.77133333 7.3032,6.17866667 7.79348,5.74733333 C9.1392,4.562 11.34376,4.53866667 12.70784,5.696 C13.53336,6.39666667 14.02364,7.34933333 14.08688,8.37933333 C14.14944,9.37733333 13.80196,10.3426667 13.11176,11.0913333" id="Shape"></path>
            </g>
        </g>
    </g>
</svg>