<?xml version="1.0" encoding="UTF-8"?>
<svg width="15px" height="16px" viewBox="0 0 15 16" version="1.1" xmlns="http://www.w3.org/2000/svg" xmlns:xlink="http://www.w3.org/1999/xlink">
    <!-- Generator: Sketch 53.1 (72631) - https://sketchapp.com -->
    <title>songkick</title>
    <desc>Created with Sketch.</desc>
    <g id="Page-1" stroke="none" stroke-width="1" fill="none" fill-rule="evenodd">
        <g id="Artist-ikone" transform="translate(-91.000000, -362.000000)" fill="#000000" fill-rule="nonzero">
            <g id="songkick" transform="translate(91.000000, 362.000000)">
                <path d="M4.09375,12.65856 C2.934375,12.65856 1.98625,12.4416 1.22,11.63328 L2.42,10.41216 C2.81375,10.816 3.5075,10.95808 4.116875,10.95808 C4.858125,10.95808 5.20375,10.70784 5.20375,10.26112 C5.20375,10.07488 5.16625,9.92256 5.054375,9.80224 C4.960625,9.70368 4.801875,9.62752 4.5575,9.59488 L3.648125,9.46368 C2.983125,9.3664 2.46625,9.13728 2.129375,8.7776 C1.7825,8.40768 1.604375,7.8848 1.604375,7.21984 C1.585,5.80224 2.625,4.768 4.35,4.768 C5.4375,4.768 6.255,5.02848 6.90375,5.69472 L5.731875,6.8928 C5.25375,6.40256 4.625625,6.4352 4.2975,6.4352 C3.648125,6.4352 3.381875,6.81728 3.381875,7.1552 C3.381875,7.25248 3.41375,7.3952 3.531875,7.51424 C3.625625,7.61216 3.784375,7.71072 4.051875,7.744 L4.96875,7.87392 C5.65,7.97184 6.140625,8.19072 6.459375,8.51712 C6.8625,8.92032 7.021875,9.49632 7.021875,10.21632 C7.021875,11.79712 5.6925,12.66048 4.096875,12.66048 L4.09375,12.65856 Z M13.008125,2.33664 C11.98625,1.55648 10.85625,1.03168 9.430625,0.79168 L9.430625,7.75168 L11.46875,4.84672 L13.696875,4.84672 L11.1375,8.50752 C11.1375,8.50752 11.7275,9.47392 12.084375,10.04672 C12.450625,10.62208 12.79625,10.77632 13.3125,10.77632 L13.66875,10.77632 L13.66875,12.57216 L13.12375,12.57216 C11.99125,12.57216 11.31125,12.36096 10.79875,11.56416 C10.48375,11.04512 9.439375,9.36512 9.439375,9.36512 L9.439375,12.56192 L7.575,12.56192 L7.575,0.63936 L7.5,0.63936 C5.0925,0.63936 3.431875,1.2352 1.993125,2.33664 C-0.0825,3.92768 0.000625,6.04864 0.000625,8.31808 C0.000625,10.58816 -0.0825,12.71296 1.993125,14.30336 C3.431875,15.40736 5.0925,16 7.5,16 C9.9075,16 11.56875,15.40672 13.0075,14.30336 C15.081875,12.7136 15,10.58816 15,8.31808 C15,6.04864 15.0825,3.92832 13.0075,2.33664 L13.008125,2.33664 L13.008125,2.33664 Z" id="Shape"></path>
            </g>
        </g>
    </g>
</svg>