<?xml version="1.0" encoding="UTF-8"?>
<svg width="24px" height="12px" viewBox="0 0 24 12" version="1.1" xmlns="http://www.w3.org/2000/svg" xmlns:xlink="http://www.w3.org/1999/xlink">
    <!-- Generator: Sketch 53.1 (72631) - https://sketchapp.com -->
    <title>soundcloud</title>
    <desc>Created with Sketch.</desc>
    <g id="Page-1" stroke="none" stroke-width="1" fill="none" fill-rule="evenodd">
        <g id="Artist-ikone" transform="translate(-91.000000, -496.000000)" fill="#000000" fill-rule="nonzero">
            <g id="soundcloud" transform="translate(91.000000, 496.000000)">
                <path d="M1.175,6.225 C1.124,6.225 1.081,6.271 1.074,6.325 L0.841,8.479 L1.074,10.584 C1.081,10.642 1.124,10.682 1.175,10.682 C1.225,10.682 1.265,10.642 1.274,10.584 L1.529,8.479 L1.259,6.325 C1.259,6.268 1.214,6.225 1.169,6.225 L1.175,6.225 Z M0.27,7.053 C0.21,7.053 0.179,7.09 0.166,7.147 L0,8.479 L0.165,9.787 C0.165,9.842 0.21,9.881 0.255,9.881 C0.3,9.881 0.344,9.836 0.359,9.777 L0.569,8.458 L0.359,7.124 C0.359,7.063 0.315,7.034 0.269,7.034 L0.27,7.053 Z M2.099,5.805 C2.038,5.805 1.979,5.85 1.979,5.909 L1.769,8.472 L1.994,10.93 C1.994,10.99 2.039,11.05 2.113,11.05 C2.174,11.05 2.218,10.989 2.234,10.93 L2.488,8.456 L2.234,5.908 C2.218,5.848 2.173,5.788 2.113,5.788 L2.099,5.805 Z M3.058,5.699 C2.983,5.699 2.923,5.759 2.908,5.834 L2.715,8.474 L2.925,11.018 C2.941,11.095 3,11.156 3.074,11.156 C3.149,11.156 3.209,11.095 3.224,11.006 L3.464,8.474 L3.224,5.851 C3.224,5.776 3.164,5.716 3.089,5.716 L3.058,5.699 L3.058,5.699 Z M4.213,6.059 C4.208,5.969 4.138,5.91 4.054,5.91 C3.964,5.91 3.896,5.97 3.89,6.059 L3.673,8.489 L3.873,11.052 C3.873,11.142 3.948,11.209 4.032,11.209 C4.106,11.209 4.18,11.141 4.18,11.051 L4.407,8.488 L4.18,6.044 L4.213,6.059 L4.213,6.059 Z M5.022,4.35 C4.921,4.35 4.842,4.44 4.842,4.531 L4.632,8.488 L4.819,11.051 C4.819,11.141 4.899,11.215 4.999,11.215 C5.093,11.215 5.173,11.125 5.179,11.035 L5.388,8.472 L5.179,4.5 C5.171,4.396 5.091,4.32 4.999,4.32 L5.022,4.35 Z M5.958,3.406 C5.853,3.406 5.763,3.496 5.755,3.6 L5.575,8.472 L5.74,11.02 C5.74,11.14 5.83,11.229 5.935,11.229 C6.039,11.229 6.129,11.14 6.145,11.02 L6.338,8.472 L6.146,3.616 C6.13,3.496 6.041,3.406 5.936,3.406 L5.958,3.406 Z M6.925,2.957 C6.804,2.957 6.714,3.046 6.7,3.166 L6.535,8.441 L6.7,10.961 C6.714,11.08 6.804,11.186 6.925,11.186 C7.044,11.186 7.15,11.081 7.15,10.961 L7.345,8.441 L7.149,3.166 C7.149,3.046 7.044,2.941 6.924,2.941 L6.925,2.957 Z M8.169,2.986 C8.169,2.851 8.064,2.746 7.929,2.746 C7.81,2.746 7.689,2.851 7.689,2.986 L7.54,8.427 L7.689,10.93 C7.705,11.065 7.81,11.17 7.945,11.17 C8.08,11.17 8.185,11.065 8.185,10.93 L8.349,8.427 L8.185,2.971 L8.169,2.986 Z M8.918,2.852 C8.783,2.852 8.663,2.971 8.663,3.106 L8.513,8.428 L8.663,10.901 C8.663,11.051 8.783,11.156 8.918,11.156 C9.053,11.156 9.173,11.036 9.173,10.886 L9.323,8.412 L9.158,3.105 C9.158,2.957 9.038,2.835 8.887,2.835 L8.918,2.852 Z M9.892,3.001 C9.728,3.001 9.608,3.136 9.608,3.286 L9.505,8.429 L9.64,10.903 C9.64,11.052 9.759,11.18 9.924,11.18 C10.073,11.18 10.195,11.06 10.208,10.895 L10.329,8.452 L10.194,3.34 C10.182,3.176 10.059,3.055 9.909,3.055 L9.892,3.001 Z M11.093,2.11 C11.048,2.081 10.988,2.066 10.928,2.066 C10.868,2.066 10.809,2.081 10.763,2.11 C10.673,2.164 10.614,2.26 10.614,2.365 L10.614,2.426 L10.51,8.474 L10.625,10.923 L10.625,10.931 C10.633,10.991 10.655,11.066 10.699,11.111 C10.757,11.172 10.841,11.215 10.933,11.215 C11.013,11.215 11.091,11.171 11.142,11.125 C11.2,11.065 11.233,10.99 11.233,10.9 L11.248,10.66 L11.365,8.457 L11.23,2.371 C11.23,2.267 11.169,2.178 11.095,2.132 L11.093,2.11 L11.093,2.11 Z M12.099,1.563 C12.054,1.518 12.009,1.502 11.949,1.502 C11.875,1.502 11.8,1.518 11.74,1.563 C11.665,1.624 11.621,1.713 11.621,1.803 L11.621,1.832 L11.484,8.441 L11.56,9.656 L11.621,10.841 C11.621,11.005 11.769,11.155 11.949,11.155 C12.13,11.155 12.279,11.005 12.279,10.826 L12.429,8.412 L12.279,1.775 C12.279,1.655 12.205,1.554 12.114,1.498 L12.099,1.563 Z M21.048,5.275 C20.643,5.275 20.253,5.361 19.909,5.507 C19.669,2.853 17.449,0.771 14.721,0.771 C14.062,0.771 13.416,0.906 12.832,1.13 C12.607,1.22 12.562,1.31 12.547,1.489 L12.547,10.857 C12.563,11.037 12.697,11.187 12.877,11.202 L21.062,11.202 C22.681,11.218 24,9.914 24,8.28 C24,6.646 22.681,5.328 21.062,5.328 L21.048,5.275 Z" id="Shape"></path>
            </g>
        </g>
    </g>
</svg>