<?xml version="1.0" encoding="UTF-8" standalone="no"?><!DOCTYPE svg PUBLIC "-//W3C//DTD SVG 1.1//EN" "http://www.w3.org/Graphics/SVG/1.1/DTD/svg11.dtd"><svg width="100%" height="100%" viewBox="0 0 30 30" version="1.1" xmlns="http://www.w3.org/2000/svg" xmlns:xlink="http://www.w3.org/1999/xlink" xml:space="preserve" xmlns:serif="http://www.serif.com/" style="fill-rule:evenodd;clip-rule:evenodd;stroke-linejoin:round;stroke-miterlimit:1.41421;"><path id="Mask" d="M23.027,29.726c-2.516,-1.792 -6.951,-5.043 -6.951,-5.043c0,0 -2.334,2.204 -3.844,3.629c-0.267,0.252 -0.649,0.35 -1.007,0.257c-0.359,-0.094 -0.631,-0.368 -0.749,-0.715c-0.94,-2.769 -2.742,-8.214 -2.742,-8.214c0,0 -3.858,-1.223 -6.797,-2.102c-0.426,-0.128 -0.722,-0.509 -0.737,-0.948c-0.013,-0.439 0.258,-0.838 0.673,-0.992c6.554,-2.425 22.587,-8.441 27.793,-10.368c0.338,-0.126 0.717,-0.058 0.99,0.174c0.273,0.232 0.397,0.593 0.323,0.941c-0.982,4.613 -3.6,17.447 -4.679,22.518c-0.102,0.476 -0.439,0.868 -0.899,1.043c-0.459,0.174 -0.974,0.103 -1.374,-0.18Zm-13.671,-10.774l2.085,6.877l0.463,-4.355c0,0 8.055,-7.265 12.646,-11.405c0.134,-0.122 0.153,-0.326 0.041,-0.469c-0.11,-0.142 -0.314,-0.176 -0.467,-0.079c-5.321,3.398 -14.768,9.431 -14.768,9.431Z" style="fill-rule:nonzero;"/></svg>