<?xml version="1.0" encoding="UTF-8" standalone="no"?><!DOCTYPE svg PUBLIC "-//W3C//DTD SVG 1.1//EN" "http://www.w3.org/Graphics/SVG/1.1/DTD/svg11.dtd"><svg width="100%" height="100%" viewBox="0 0 80 80" version="1.1" xmlns="http://www.w3.org/2000/svg" xmlns:xlink="http://www.w3.org/1999/xlink" xml:space="preserve" xmlns:serif="http://www.serif.com/" style="fill-rule:evenodd;clip-rule:evenodd;stroke-linejoin:round;stroke-miterlimit:1.41421;"><path d="M32.275,63.218l-9.111,0l6.21,-31.351c0.194,-1.44 0.623,-2.686 0.817,-3.933l8.487,0l-0.816,4.749l0.193,0c2.471,-3.502 6.404,-5.587 10.744,-5.587c4.105,0 8.488,2.472 8.896,6.64l0.194,0c2.278,-4.534 7.435,-6.64 12.398,-6.64c5.158,0 9.713,4.341 9.713,9.713c0,3.094 -0.817,6.64 -1.655,9.541l-3.738,16.76l-9.111,0l3.738,-17.147c0.43,-2.084 1.247,-5.394 1.247,-7.435c0,-2.686 -1.848,-4.341 -4.341,-4.341c-6.403,0 -7.864,7.435 -9.111,12.227l-3.674,16.739l-9.111,0l3.739,-17.147c0.43,-2.084 1.246,-5.394 1.246,-7.435c0,-2.686 -2.084,-4.341 -4.34,-4.341c-6.211,0 -7.865,7.435 -9.111,12.227l-3.503,16.761Zm-15.063,-35.885l8.294,0l-1.439,6.64l-8.295,0l-3.309,15.299c-0.193,0.817 -0.43,2.084 -0.43,3.503c0,2.084 1.44,3.309 3.503,3.309c1.654,0 3.309,-0.43 4.34,-0.817l-1.654,7.005c-1.655,0.43 -3.309,0.817 -4.964,0.817c-6.21,0 -10.551,-2.471 -10.551,-9.304c0,-2.686 0.624,-5.394 1.247,-8.295l2.686,-11.99l-6.64,0l1.483,-6.167l6.639,0l1.44,-7.242l9.928,-3.309l-2.278,10.551Z" style="fill:#1a1a1a;"/></svg>