<?xml version="1.0" encoding="UTF-8"?>
<svg width="25px" height="26px" viewBox="0 0 25 26" version="1.1" xmlns="http://www.w3.org/2000/svg" xmlns:xlink="http://www.w3.org/1999/xlink">
    <!-- Generator: sketchtool 57.1 (101010) - https://sketch.com -->
    <title>7BCE05E1-E519-4359-A1C9-6E64008EF175</title>
    <desc>Created with sketchtool.</desc>
    <g id="01-List-view-+-filter" stroke="none" stroke-width="1" fill="none" fill-rule="evenodd">
        <g id="List-view/artist/displays" transform="translate(-235.000000, -113.000000)" fill="#989898">
            <g id="collapsable-side-bar/displays/list-view" transform="translate(0.000000, 90.000000)">
                <g id="display-10" transform="translate(235.000000, 23.000000)">
                    <path d="M0,0 L0,26 L25,26 L25,0 L0,0 Z M23.4536082,8.13060206 L17.1821134,8.13060206 L17.1821134,1.60824742 L23.4536082,1.60824742 L23.4536082,8.13060206 Z M9.36427835,16.2611505 L9.36427835,9.73884948 L15.6357732,9.73884948 L15.6357732,16.2611505 L9.36427835,16.2611505 L9.36427835,16.2611505 Z M15.6357216,17.8693979 L15.6357216,24.3917526 L9.36427835,24.3917526 L9.36427835,17.8693979 L15.6357216,17.8693979 Z M7.8178866,16.2611505 L1.54639175,16.2611505 L1.54639175,9.73884948 L7.8178866,9.73884948 L7.8178866,16.2611505 Z M9.36427835,8.13060206 L9.36427835,1.60824742 L15.6357732,1.60824742 L15.6357732,8.13060206 L9.36427835,8.13060206 Z M17.1821134,9.73884948 L23.4536082,9.73884948 L23.4536082,16.2611505 L17.1821134,16.2611505 L17.1821134,9.73884948 Z M7.8178866,1.60824742 L7.8178866,8.13060206 L1.54639175,8.13060206 L1.54639175,1.60824742 L7.8178866,1.60824742 Z M1.54639175,17.8693979 L7.8178866,17.8693979 L7.8178866,24.3917526 L1.54639175,24.3917526 L1.54639175,17.8693979 Z M17.1821134,24.3917526 L17.1821134,17.8693979 L23.4536082,17.8693979 L23.4536082,24.3917526 L17.1821134,24.3917526 Z" id="Shape"></path>
                </g>
            </g>
        </g>
    </g>
</svg>