<?xml version="1.0" encoding="UTF-8"?>
<svg width="26px" height="23px" viewBox="0 0 26 23" version="1.1" xmlns="http://www.w3.org/2000/svg" xmlns:xlink="http://www.w3.org/1999/xlink">
    <!-- Generator: Sketch 57.1 (83088) - https://sketch.com -->
    <title>controller</title>
    <desc>Created with Sketch.</desc>
    <g id="Page-1" stroke="none" stroke-width="1" fill="none" fill-rule="evenodd">
        <g id="collapsable-side-bar/displays/list-view" transform="translate(-32.000000, -34.000000)" fill="#000000" fill-rule="nonzero">
            <g id="controller" transform="translate(32.000000, 34.000000)">
                <path d="M9.73815258,2.18181818 C9.38717938,0.924163636 8.24907629,0 6.90206186,0 C5.55504742,0 4.41699794,0.924163636 4.06597113,2.18181818 L0,2.18181818 L0,3.81818182 L4.06597113,3.81818182 C4.41694433,5.07583636 5.55504742,6 6.90206186,6 C8.24907629,6 9.38712577,5.07583636 9.73815258,3.81818182 L26,3.81818182 L26,2.18181818 L9.73815258,2.18181818 Z M6.90206186,4.36363636 C6.16307216,4.36363636 5.56185567,3.75190909 5.56185567,3 C5.56185567,2.24809091 6.16307216,1.63636364 6.90206186,1.63636364 C7.64105155,1.63636364 8.24226804,2.24809091 8.24226804,3 C8.24226804,3.75190909 7.64105155,4.36363636 6.90206186,4.36363636 Z" id="Shape"></path>
                <path d="M13,8 C11.6529856,8 10.5149361,8.92416364 10.1639093,10.1818182 L0,10.1818182 L0,11.8181818 L10.1639093,11.8181818 C10.5148825,13.0758364 11.6529856,14 13,14 C14.3470144,14 15.4850639,13.0758364 15.8360907,11.8181818 L26,11.8181818 L26,10.1818182 L15.8360907,10.1818182 C15.4850639,8.92416364 14.3470144,8 13,8 Z M13,12.3636364 C12.2610103,12.3636364 11.6597938,11.7519091 11.6597938,11 C11.6597938,10.2480909 12.2610103,9.63636364 13,9.63636364 C13.7389897,9.63636364 14.3402062,10.2480909 14.3402062,11 C14.3402062,11.7519091 13.7389897,12.3636364 13,12.3636364 Z" id="Shape"></path>
                <path d="M6.90206186,17 C5.55504742,17 4.41699794,17.9241636 4.06597113,19.1818182 L0,19.1818182 L0,20.8181818 L4.06597113,20.8181818 C4.41694433,22.0758364 5.55504742,23 6.90206186,23 C8.24907629,23 9.38712577,22.0758364 9.73815258,20.8181818 L26,20.8181818 L26,19.1818182 L9.73815258,19.1818182 C9.38712577,17.9241636 8.24907629,17 6.90206186,17 Z M6.90206186,21.3636364 C6.16307216,21.3636364 5.56185567,20.7519091 5.56185567,20 C5.56185567,19.2480909 6.16307216,18.6363636 6.90206186,18.6363636 C7.64105155,18.6363636 8.24226804,19.2480909 8.24226804,20 C8.24226804,20.7519091 7.64105155,21.3636364 6.90206186,21.3636364 Z" id="Shape"></path>
            </g>
        </g>
    </g>
</svg>