<?xml version="1.0" encoding="utf-8"?>
<!-- Generator: Adobe Illustrator 24.0.1, SVG Export Plug-In . SVG Version: 6.00 Build 0)  -->
<svg version="1.1" id="Layer_1" xmlns="http://www.w3.org/2000/svg" xmlns:xlink="http://www.w3.org/1999/xlink" x="0px" y="0px"
	 viewBox="0 0 26.56 26" style="enable-background:new 0 0 26.56 26;" xml:space="preserve">
<style type="text/css">
	.st0{fill-rule:evenodd;clip-rule:evenodd;}
</style>
<title>7BCE05E1-E519-4359-A1C9-6E64008EF175</title>
<desc>Created with sketchtool.</desc>
<g id="Page-1">
	<g id="Artist-ikone" transform="translate(-204.000000, -232.000000)">
		<path id="beatport" class="st0" d="M226.71,246.36c0,2.39-0.91,4.66-2.56,6.4l0,0c-0.22,0.23-0.59,0.24-0.83,0.02l-1.02-0.95
			c-0.23-0.22-0.25-0.58-0.03-0.82l0,0c1.2-1.27,1.86-2.92,1.86-4.66c0-3.75-3.08-6.81-6.87-6.81c-3.79,0-6.87,3.05-6.87,6.81
			c0,1.74,0.66,3.39,1.86,4.66l0,0c0.22,0.23,0.21,0.6-0.03,0.82l-1.02,0.95c-0.24,0.22-0.6,0.21-0.83-0.02l0,0
			c-1.65-1.74-2.56-4.01-2.56-6.4c0-5.16,4.23-9.36,9.44-9.36C222.48,237,226.71,241.2,226.71,246.36z M230.28,246.31
			c0,2.26-0.62,4.47-1.78,6.41c-0.17,0.27-0.52,0.36-0.8,0.2l-1.2-0.71c-0.28-0.16-0.37-0.52-0.2-0.79l0,0
			c0.93-1.54,1.42-3.3,1.42-5.1c0-1.02-0.16-2.02-0.46-2.98l0,0c-0.09-0.31,0.08-0.63,0.39-0.72l1.33-0.41
			c0.31-0.09,0.63,0.07,0.73,0.37c0,0,0,0,0,0c0,0,0,0,0,0h0C230.09,243.78,230.28,245.04,230.28,246.31z M208.27,251.41
			L208.27,251.41c0.16,0.27,0.07,0.63-0.2,0.79l-1.2,0.71c-0.28,0.16-0.63,0.08-0.8-0.2l0,0c-1.17-1.93-1.78-4.15-1.78-6.41
			c0-1.28,0.19-2.54,0.58-3.75l0,0c0.1-0.3,0.42-0.47,0.73-0.38l1.33,0.41c0.31,0.1,0.48,0.42,0.38,0.72v0v0h0
			c-0.3,0.96-0.46,1.96-0.46,2.98C206.85,248.11,207.34,249.87,208.27,251.41z"/>
	</g>
</g>
</svg>
