<?xml version="1.0" encoding="UTF-8"?>
<svg width="9px" height="16px" viewBox="0 0 9 16" version="1.1" xmlns="http://www.w3.org/2000/svg" xmlns:xlink="http://www.w3.org/1999/xlink">
    <!-- Generator: Sketch 53.1 (72631) - https://sketchapp.com -->
    <title>tumblr</title>
    <desc>Created with Sketch.</desc>
    <g id="Page-1" stroke="none" stroke-width="1" fill="none" fill-rule="evenodd">
        <g id="Artist-ikone" transform="translate(-324.000000, -232.000000)" fill="#000000" fill-rule="nonzero">
            <g id="tumblr" transform="translate(324.000000, 232.000000)">
                <path d="M6.14764286,16 C2.87357143,16 1.62771429,13.496 1.62771429,11.726 L1.62771429,6.498 L0.0745714286,6.498 L0.0745714286,4.432 C2.40814286,3.55666667 2.97514286,1.368 3.10242857,0.119333333 C3.11142857,0.034 3.17635714,0 3.21364286,0 L5.47457143,0 L5.47457143,4.076 L8.56092857,4.076 L8.56092857,6.498 L5.46235714,6.498 L5.46235714,11.478 C5.47264286,12.1453333 5.70342857,13.0586667 6.88114286,13.0586667 L6.939,13.0586667 C7.34464286,13.0453333 7.89428571,12.922 8.18357143,12.7793333 L8.92671429,15.0626667 C8.64642857,15.4866667 7.38385714,15.9786667 6.255,15.9986667 L6.14057143,15.9986667 L6.14764286,16 Z" id="Path"></path>
            </g>
        </g>
    </g>
</svg>