<?xml version="1.0" encoding="UTF-8"?>
<svg width="20px" height="16px" viewBox="0 0 20 16" version="1.1" xmlns="http://www.w3.org/2000/svg" xmlns:xlink="http://www.w3.org/1999/xlink">
    <!-- Generator: Sketch 53.1 (72631) - https://sketchapp.com -->
    <title>twitter</title>
    <desc>Created with Sketch.</desc>
    <g id="Page-1" stroke="none" stroke-width="1" fill="none" fill-rule="evenodd">
        <g id="Artist-ikone" transform="translate(-90.000000, -297.000000)" fill="#000000" fill-rule="nonzero">
            <g id="twitter" transform="translate(90.000000, 297.000000)">
                <path d="M19.1632,2.0552 C18.4552,2.3664 17.6992,2.5784 16.9032,2.6752 C17.7144,2.1864 18.3384,1.416 18.6336,0.4968 C17.8728,0.9408 17.0296,1.264 16.132,1.444 C15.4152,0.6768 14.3936,0.1968 13.2592,0.1968 C11.0856,0.1968 9.3232,1.9592 9.3232,4.1304 C9.3232,4.4424 9.3592,4.7424 9.4248,5.0296 C6.1528,4.8752 3.2528,3.304 1.312,0.9288 C0.9704,1.5064 0.7792,2.1776 0.7792,2.9088 C0.7792,4.2768 1.4752,5.4792 2.5296,6.1856 C1.884,6.1648 1.2768,5.9872 0.7472,5.6928 L0.7472,5.7416 C0.7472,7.6496 2.1016,9.2408 3.904,9.6032 C3.5736,9.692 3.2248,9.74 2.8672,9.74 C2.616,9.74 2.3752,9.716 2.1344,9.6712 C2.6392,11.2336 4.0904,12.3728 5.8176,12.4048 C4.4736,13.46 2.7704,14.0888 0.936,14.0888 C0.624,14.0888 0.3128,14.0704 0,14.0352 C1.7512,15.1504 3.8144,15.8024 6.0456,15.8024 C13.2888,15.8024 17.2448,9.8056 17.2448,4.6136 C17.2448,4.4464 17.2448,4.2776 17.2328,4.1096 C18.0016,3.5584 18.6728,2.8616 19.2008,2.0712 L19.1632,2.0552 Z" id="Path"></path>
            </g>
        </g>
    </g>
</svg>