<?xml version="1.0" encoding="UTF-8"?>
<svg width="21px" height="16px" viewBox="0 0 21 16" version="1.1" xmlns="http://www.w3.org/2000/svg" xmlns:xlink="http://www.w3.org/1999/xlink">
    <!-- Generator: Sketch 53.1 (72631) - https://sketchapp.com -->
    <title>youtube</title>
    <desc>Created with Sketch.</desc>
    <g id="Page-1" stroke="none" stroke-width="1" fill="none" fill-rule="evenodd">
        <g id="Artist-ikone" transform="translate(-204.000000, -167.000000)" fill="#000000" fill-rule="nonzero">
            <g id="youtube" transform="translate(204.000000, 167.000000)">
                <path d="M20.558125,2.84888889 C20.3106671,1.94813935 19.6178003,1.24427469 18.731125,0.992888889 C17.094875,0.547555556 10.509625,0.547555556 10.509625,0.547555556 C10.509625,0.547555556 3.941,0.538666667 2.288125,0.992888889 C1.40144967,1.24427469 0.708582895,1.94813935 0.461125,2.84888889 C0.15095552,4.55067605 -0.00195952023,6.27818914 0.004375,8.00888889 C-0.000762010229,9.73305798 0.152148017,11.4539677 0.461125,13.1493333 C0.708582895,14.0500829 1.40144967,14.7539475 2.288125,15.0053333 C3.922625,15.4515556 10.509625,15.4515556 10.509625,15.4515556 C10.509625,15.4515556 17.077375,15.4515556 18.731125,15.0053333 C19.6178003,14.7539475 20.3106671,14.0500829 20.558125,13.1493333 C20.8606468,11.4533536 21.007112,9.73244887 20.995625,8.00888889 C21.0083094,6.27880052 20.8618394,4.55129242 20.558125,2.84888889 L20.558125,2.84888889 Z M8.407875,11.2008889 L8.407875,4.80711111 L13.888875,8.00888889 L8.407875,11.2008889 Z" id="Shape"></path>
            </g>
        </g>
    </g>
</svg>